<svg id="Layer_1" data-name="Layer 1" xmlns="http://www.w3.org/2000/svg" viewBox="0 0 1080 366.42"><defs><style>.cls-1{fill:#f26236;}.cls-2{fill:#e6d44c;}.cls-3{fill:#e61d36;}.cls-4{fill:#1a998b;}.cls-5{fill:#2f284f;}.cls-6{fill:#df452b;}.cls-7{fill:#181630;}.cls-8{fill:#147260;}.cls-9{fill:#c3163c;}.cls-10{fill:#c8b039;}.cls-11{fill:#383838;}</style></defs><title>Ayushi-logo</title><path class="cls-1" d="M284.73,68V176.64h-105a110.21,110.21,0,0,1,32.46-78.57A102.84,102.84,0,0,1,284.73,68Z"/><path class="cls-2" d="M212.16,73.27,179.7,176.64A105.58,105.58,0,0,1,120,125.4a111.73,111.73,0,0,1-7.73-85.73Z"/><path class="cls-3" d="M179.7,176.64a104.25,104.25,0,0,1-67.49,43.29A102,102,0,0,1,33,200.68l61.74-87.93Z"/><path class="cls-4" d="M197.92,260.79a108.82,108.82,0,0,1-41.46,67.67L94.78,240.59l0-.06,85-63.89A111.32,111.32,0,0,1,197.92,260.79Z"/><path class="cls-5" d="M312.05,246.43,212.16,280,179.7,176.64a101.59,101.59,0,0,1,82,7.52h0A107.44,107.44,0,0,1,312.05,246.43Z"/><path class="cls-6" d="M284.73,68V176.64L212.16,98.07A102.84,102.84,0,0,1,284.73,68Z"/><path class="cls-7" d="M312.05,246.43,212.16,280l49.52-95.85h0A107.44,107.44,0,0,1,312.05,246.43Z"/><path class="cls-8" d="M197.92,260.79a108.82,108.82,0,0,1-41.46,67.67L94.78,240.59l0-.06Z"/><path class="cls-9" d="M112.21,219.93A102,102,0,0,1,33,200.68l61.74-87.93Z"/><path class="cls-10" d="M212.16,73.27,120,125.4a111.73,111.73,0,0,1-7.73-85.73Z"/><path class="cls-11" d="M382.76,253.93l-6.45,66.42H350.59L390.21,41.09h26.18L456,320.35H430.44L424,253.93Zm3.76-34.52H418L402.42,90.71Z"/><path class="cls-11" d="M459.9,208.46l16-44.66-30.42-97h28.66l11.16,44.83q1.5,6,2.81,12.7t2.55,14.29q1.06-5.62,2.29-11T495.5,117l14.06-50.19h28.49l-49.5,141.7Z"/><path class="cls-11" d="M577.69,66.76v67.86q0,9.76,3.39,14.77t10.06,5q6.76,0,10.15-5t3.39-14.81V66.76h28.83v67.33q0,20.83-11.21,32.57T591.14,178.4q-20,0-31.16-11.65t-11.12-32.66V66.76Z"/><path class="cls-11" d="M705.15,93.57A25,25,0,0,0,698,86.84a15.77,15.77,0,0,0-8.17-2.24q-5.62,0-8.75,2.77A9.75,9.75,0,0,0,678,95.06q0,7.22,16.7,13.28c.82.29,1.47.52,1.94.7q19,6.67,25.53,14.24t6.55,20.92q0,15.56-10.59,24.88t-28.44,9.32q-14.32,0-24.92-5.54T650.39,158l20-11.86a27.42,27.42,0,0,0,8.48,7.86A20.23,20.23,0,0,0,689,156.6q6.06,0,9.76-3a9.59,9.59,0,0,0,3.69-7.83q0-7.29-14.42-13c-2.63-1.05-4.66-1.87-6.06-2.46q-17.94-7.56-24.18-14.9t-6.24-19.12q0-14.58,10.37-23.51t27.43-8.92q12.57,0,21.89,5.09a36.41,36.41,0,0,1,14.68,15Z"/><path class="cls-11" d="M802.91,175.5V111.76q0-14.85-2.2-18.94t-8.09-4.09q-8.45,0-11.87,7.74t-3.43,29v50H747.61V33.79h29.71V66.23q0,3.78-.43,8.7t-1.32,10.73Q780.13,75.19,787.21,70a27.12,27.12,0,0,1,16.57-5.23q13.82,0,21.23,9.09t7.43,26.07v75.6Z"/><path class="cls-11" d="M888.26,46.45a10.86,10.86,0,0,1-4.7,9.45q-4.71,3.3-13.49,3.3t-13.5-3.3a10.86,10.86,0,0,1-4.7-9.45A10.77,10.77,0,0,1,856.53,37q4.65-3.24,13.54-3.25T883.56,37A10.75,10.75,0,0,1,888.26,46.45ZM855.65,175.5V73.09h28.83V175.5Z"/><path class="cls-11" d="M572.62,210v92.92q0,24.44-11.38,36.7T527.18,351.9q-16.27,0-26.38-6.33T489,328.08h29.54a6.64,6.64,0,0,0,3.17,4.35,13,13,0,0,0,6.59,1.45q8.43,0,11.69-5.1t3.25-22.59V293.88q-3.6,9.06-9.4,13.54a21.64,21.64,0,0,1-13.63,4.48q-14.85,0-24.35-14.11T486.39,261q0-23.64,9.67-37.93t25.23-14.28a23.62,23.62,0,0,1,16.13,6.28q7.07,6.28,11,17.8-1.05-6.06-1.58-11.78c-.36-3.8-.53-7.5-.53-11.07Zm-42.37,77.44q6.86,0,10.9-7.38t4.05-20q0-12.57-4.05-20.05t-10.72-7.47q-6.76,0-10.86,7.43T515.48,260q0,12.66,4,20T530.25,287.46Z"/><path class="cls-11" d="M591.12,318.76V210h25.32q0,6-.44,12.66t-1.32,14.85q5.45-14.85,13.18-22a26.21,26.21,0,0,1,18.38-7.12c.58,0,1.21,0,1.89,0s1.77.13,3.29.31v32.52a36.16,36.16,0,0,0-6.63-2.41,26.19,26.19,0,0,0-6.47-.84q-9.93,0-14.15,6.11t-4.22,21v53.62Z"/><path class="cls-11" d="M747.06,318.76H722.8q.18-6.76.79-13.19t1.5-12.39q-4.49,13.62-11.87,20.48a24.84,24.84,0,0,1-17.49,6.86q-15.57,0-25.32-15.48t-9.76-40.61q0-26.19,9.1-41.09t24.92-14.9A23.51,23.51,0,0,1,710,214q6.76,5.55,10.63,15.83c-.64-3.28-1.15-6.6-1.53-9.94s-.6-6.62-.66-9.84h28.65Zm-41.66-23q7.38,0,11.38-8.09t4-23q0-14.94-4-23t-11.38-8q-7.3,0-11.39,8.08t-4.08,23q0,14.85,4.08,23T705.4,295.73Z"/><path class="cls-11" d="M842.27,210l11.34,56.7.35,1.58a259,259,0,0,1,4.13,28.13q.43-6.42,1.54-14t3-16.61L874.18,210h25.75L872.15,318.76h-27l-10.11-46.24c-.47-2.34-1.1-6.1-1.89-11.25s-1.6-10.84-2.42-17.06q-1.23,9.33-2.42,17.06c-.79,5.15-1.42,8.91-1.89,11.25l-10.28,46.24H789.35L761.48,210h25.67l11.78,55.82q1.67,8.27,2.77,16t1.54,14.64a251.08,251.08,0,0,1,4-26c.29-1.64.53-2.87.7-3.69L819.06,210Z"/><path class="cls-11" d="M994.61,318.76H970.34q.18-6.76.8-13.19t1.49-12.39q-4.49,13.62-11.87,20.48a24.84,24.84,0,0,1-17.49,6.86q-15.56,0-25.32-15.48t-9.75-40.61q0-26.19,9.09-41.09t24.92-14.9a23.51,23.51,0,0,1,15.3,5.53q6.76,5.55,10.64,15.83c-.65-3.28-1.16-6.6-1.54-9.94s-.6-6.62-.66-9.84h28.66Zm-41.67-23q7.38,0,11.38-8.09t4-23q0-14.94-4-23t-11.38-8q-7.29,0-11.38,8.08t-4.09,23q0,14.85,4.09,23T952.94,295.73Z"/><path class="cls-11" d="M1018.17,318.76V177.05H1047V318.76Z"/></svg>